<?xml version="1.0" encoding="UTF-8"?>
<svg id="Logos" xmlns="http://www.w3.org/2000/svg" viewBox="0 0 1049.73 1184.71">
  <defs>
    <style>
      .cls-1 {
        fill: #fff;
      }
    </style>
  </defs>
  <path class="cls-1" d="M250.2,535.99c125.44-20.66,223.76-118.98,244.43-244.43l9.93-60.29c1.98-12.04-7.8-22.9-19.96-21.95-94.82,7.4-184.22,38.64-234.02,59.03-24.67,10.1-40.77,34.09-40.77,60.75v191.27c0,11.67,10.46,20.55,21.98,18.65l18.42-3.03Z"/>
  <path class="cls-1" d="M555.1,291.56c20.66,125.44,118.98,223.76,244.43,244.43l18.42,3.03c11.51,1.9,21.98-6.99,21.98-18.65v-191.27c0-26.66-16.1-50.65-40.77-60.75-49.8-20.39-139.2-51.62-234.02-59.03-12.16-.95-21.95,9.91-19.96,21.95l9.93,60.29Z"/>
  <path class="cls-1" d="M799.52,596.45c-125.44,20.66-223.76,118.98-244.43,244.43l-12.52,119.06c-1.13,10.74,10.79,18.31,19.76,12.31.07-.05.14-.09.21-.14,78.66-53.04,258.13-191.97,275.92-365.46.87-8.52-6.71-15.51-15.16-14.11l-23.79,3.92Z"/>
  <path class="cls-1" d="M494.63,840.88c-20.66-125.44-118.98-223.76-244.43-244.43l-25.59-4.21c-7.54-1.24-14.27,5-13.53,12.6,16.85,174.45,198.78,314.24,278.16,367.38h0c8.21,5.47,19.08-1.1,18.05-10.91l-12.67-120.43Z"/>
</svg>